<mxfile host="app.diagrams.net" modified="2025-08-12T10:00:00.000Z" agent="5.0 (Windows NT 10.0; Win64; x64) AppleWebKit/537.36 (KHTML, like Gecko) Chrome/91.0.4472.124 Safari/537.36" version="14.7.6" etag="123456789">
  <diagram name="Sequence Diagram - Main Flow" id="sequence-main">
    <mxGraphModel dx="1422" dy="798" grid="1" gridSize="10" guides="1" tooltips="1" connect="1" arrows="1" fold="1" page="1" pageScale="1" pageWidth="1100" pageHeight="850" background="#ffffff">
      <root>
        <mxCell id="0"/>
        <mxCell id="1" parent="0"/>
        
        <!-- Actors and Systems -->
        <mxCell id="2" value="User" style="shape=umlActor;verticalLabelPosition=bottom;verticalAlign=top;html=1;" vertex="1" parent="1">
          <mxGeometry x="50" y="20" width="30" height="60" as="geometry"/>
        </mxCell>
        <mxCell id="3" value="Web Interface" style="shape=umlLifeline;perimeter=lifelinePerimeter;whiteSpace=wrap;html=1;container=1;collapsible=0;recursiveResize=0;outlineConnect=0;" vertex="1" parent="1">
          <mxGeometry x="160" y="40" width="100" height="700" as="geometry"/>
        </mxCell>
        <mxCell id="4" value="Auth Controller" style="shape=umlLifeline;perimeter=lifelinePerimeter;whiteSpace=wrap;html=1;container=1;collapsible=0;recursiveResize=0;outlineConnect=0;" vertex="1" parent="1">
          <mxGeometry x="320" y="40" width="100" height="700" as="geometry"/>
        </mxCell>
        <mxCell id="5" value="Report Controller" style="shape=umlLifeline;perimeter=lifelinePerimeter;whiteSpace=wrap;html=1;container=1;collapsible=0;recursiveResize=0;outlineConnect=0;" vertex="1" parent="1">
          <mxGeometry x="480" y="40" width="100" height="700" as="geometry"/>
        </mxCell>
        <mxCell id="6" value="Database" style="shape=umlLifeline;perimeter=lifelinePerimeter;whiteSpace=wrap;html=1;container=1;collapsible=0;recursiveResize=0;outlineConnect=0;" vertex="1" parent="1">
          <mxGeometry x="640" y="40" width="100" height="700" as="geometry"/>
        </mxCell>

        <!-- Login Flow -->
        <mxCell id="7" value="" style="html=1;points=[];perimeter=orthogonalPerimeter;" vertex="1" parent="1">
          <mxGeometry x="65" y="110" width="10" height="580" as="geometry"/>
        </mxCell>
        <mxCell id="8" value="1. Access Login Page" style="html=1;verticalAlign=bottom;endArrow=block;" edge="1" parent="1" source="7" target="3">
          <mxGeometry relative="1" as="geometry">
            <mxPoint x="75" y="130" as="sourcePoint"/>
            <mxPoint x="205" y="130" as="targetPoint"/>
            <Array as="points">
              <mxPoint x="150" y="130"/>
            </Array>
          </mxGeometry>
        </mxCell>
        <mxCell id="9" value="2. Submit Login" style="html=1;verticalAlign=bottom;endArrow=block;" edge="1" parent="1">
          <mxGeometry relative="1" as="geometry">
            <mxPoint x="75" y="170" as="sourcePoint"/>
            <mxPoint x="369.5" y="170" as="targetPoint"/>
          </mxGeometry>
        </mxCell>
        <mxCell id="10" value="3. Validate Credentials" style="html=1;verticalAlign=bottom;endArrow=block;" edge="1" parent="1">
          <mxGeometry relative="1" as="geometry">
            <mxPoint x="370" y="190" as="sourcePoint"/>
            <mxPoint x="689.5" y="190" as="targetPoint"/>
          </mxGeometry>
        </mxCell>
        <mxCell id="11" value="4. Return Auth Result" style="html=1;verticalAlign=bottom;endArrow=open;dashed=1;endSize=8;" edge="1" parent="1">
          <mxGeometry relative="1" as="geometry">
            <mxPoint x="689.5" y="210" as="sourcePoint"/>
            <mxPoint x="370" y="210" as="targetPoint"/>
          </mxGeometry>
        </mxCell>

        <!-- Report Creation Flow -->
        <mxCell id="12" value="5. Access Create Report" style="html=1;verticalAlign=bottom;endArrow=block;" edge="1" parent="1">
          <mxGeometry relative="1" as="geometry">
            <mxPoint x="75" y="260" as="sourcePoint"/>
            <mxPoint x="529.5" y="260" as="targetPoint"/>
          </mxGeometry>
        </mxCell>
        <mxCell id="13" value="6. Show Report Form" style="html=1;verticalAlign=bottom;endArrow=open;dashed=1;endSize=8;" edge="1" parent="1">
          <mxGeometry relative="1" as="geometry">
            <mxPoint x="529.5" y="280" as="sourcePoint"/>
            <mxPoint x="75" y="280" as="targetPoint"/>
          </mxGeometry>
        </mxCell>
        <mxCell id="14" value="7. Submit Report" style="html=1;verticalAlign=bottom;endArrow=block;" edge="1" parent="1">
          <mxGeometry relative="1" as="geometry">
            <mxPoint x="75" y="320" as="sourcePoint"/>
            <mxPoint x="529.5" y="320" as="targetPoint"/>
          </mxGeometry>
        </mxCell>
        <mxCell id="15" value="8. Save Report" style="html=1;verticalAlign=bottom;endArrow=block;" edge="1" parent="1">
          <mxGeometry relative="1" as="geometry">
            <mxPoint x="529.5" y="340" as="sourcePoint"/>
            <mxPoint x="689.5" y="340" as="targetPoint"/>
          </mxGeometry>
        </mxCell>
        <mxCell id="16" value="9. Return Success" style="html=1;verticalAlign=bottom;endArrow=open;dashed=1;endSize=8;" edge="1" parent="1">
          <mxGeometry relative="1" as="geometry">
            <mxPoint x="689.5" y="360" as="sourcePoint"/>
            <mxPoint x="529.5" y="360" as="targetPoint"/>
          </mxGeometry>
        </mxCell>
        <mxCell id="17" value="10. Show Success Page" style="html=1;verticalAlign=bottom;endArrow=open;dashed=1;endSize=8;" edge="1" parent="1">
          <mxGeometry relative="1" as="geometry">
            <mxPoint x="529.5" y="380" as="sourcePoint"/>
            <mxPoint x="75" y="380" as="targetPoint"/>
          </mxGeometry>
        </mxCell>

        <!-- View Reports Flow -->
        <mxCell id="18" value="11. View My Reports" style="html=1;verticalAlign=bottom;endArrow=block;" edge="1" parent="1">
          <mxGeometry relative="1" as="geometry">
            <mxPoint x="75" y="420" as="sourcePoint"/>
            <mxPoint x="529.5" y="420" as="targetPoint"/>
          </mxGeometry>
        </mxCell>
        <mxCell id="19" value="12. Fetch Reports" style="html=1;verticalAlign=bottom;endArrow=block;" edge="1" parent="1">
          <mxGeometry relative="1" as="geometry">
            <mxPoint x="529.5" y="440" as="sourcePoint"/>
            <mxPoint x="689.5" y="440" as="targetPoint"/>
          </mxGeometry>
        </mxCell>
        <mxCell id="20" value="13. Return Reports" style="html=1;verticalAlign=bottom;endArrow=open;dashed=1;endSize=8;" edge="1" parent="1">
          <mxGeometry relative="1" as="geometry">
            <mxPoint x="689.5" y="460" as="sourcePoint"/>
            <mxPoint x="529.5" y="460" as="targetPoint"/>
          </mxGeometry>
        </mxCell>
        <mxCell id="21" value="14. Display Reports" style="html=1;verticalAlign=bottom;endArrow=open;dashed=1;endSize=8;" edge="1" parent="1">
          <mxGeometry relative="1" as="geometry">
            <mxPoint x="529.5" y="480" as="sourcePoint"/>
            <mxPoint x="75" y="480" as="targetPoint"/>
          </mxGeometry>
        </mxCell>

        <!-- Feedback Flow -->
        <mxCell id="22" value="15. Submit Feedback" style="html=1;verticalAlign=bottom;endArrow=block;" edge="1" parent="1">
          <mxGeometry relative="1" as="geometry">
            <mxPoint x="75" y="520" as="sourcePoint"/>
            <mxPoint x="529.5" y="520" as="targetPoint"/>
          </mxGeometry>
        </mxCell>
        <mxCell id="23" value="16. Save Feedback" style="html=1;verticalAlign=bottom;endArrow=block;" edge="1" parent="1">
          <mxGeometry relative="1" as="geometry">
            <mxPoint x="529.5" y="540" as="sourcePoint"/>
            <mxPoint x="689.5" y="540" as="targetPoint"/>
          </mxGeometry>
        </mxCell>
        <mxCell id="24" value="17. Confirm Save" style="html=1;verticalAlign=bottom;endArrow=open;dashed=1;endSize=8;" edge="1" parent="1">
          <mxGeometry relative="1" as="geometry">
            <mxPoint x="689.5" y="560" as="sourcePoint"/>
            <mxPoint x="529.5" y="560" as="targetPoint"/>
          </mxGeometry>
        </mxCell>
        <mxCell id="25" value="18. Show Success" style="html=1;verticalAlign=bottom;endArrow=open;dashed=1;endSize=8;" edge="1" parent="1">
          <mxGeometry relative="1" as="geometry">
            <mxPoint x="529.5" y="580" as="sourcePoint"/>
            <mxPoint x="75" y="580" as="targetPoint"/>
          </mxGeometry>
        </mxCell>

      </root>
    </mxGraphModel>
  </diagram>
</mxfile>
